<svg id="Layer_1" data-name="Layer 1" xmlns="http://www.w3.org/2000/svg" viewBox="0 0 400 400"><defs><style>.cls-1{isolation:isolate;}.cls-2{fill:#03636f;}</style></defs><g class="cls-1"><path class="cls-2" d="M235.62,194.09A50,50,0,0,1,261,238.49a62.77,62.77,0,0,1-8.4,31.95,60.46,60.46,0,0,1-24.15,23.1q-15.75,8.55-36.15,8.55-21.9,0-37.05-6.15t-27.75-22.35l9-9.9q13.2,14.4,25.35,19.5t30.45,5.1q22.5,0,37.2-13.8t14.7-35.7q0-18.9-12.9-30.3t-35.7-11.4a101,101,0,0,0-29.7,4.8l-3.3-12.9q24.9-6.3,39.45-12.3t22.8-16.2q8.25-10.2,8.25-26.7,0-13.8-9.3-22.5t-25.2-8.7q-28.8,0-54.9,30.6l-9.9-8.4q12.9-17.7,30-26.85a73,73,0,0,1,34.8-9.15q23.1,0,37.2,12.3t14.1,33q0,35.4-39.6,52.5A58,58,0,0,1,235.62,194.09Z"/></g></svg>