<svg height='100px' width='100px'  fill="#00626f" xmlns="http://www.w3.org/2000/svg" data-name="Layer 1" viewBox="0 0 100 100" x="0px" y="0px"><title>dental-implants-2</title><path d="M13.84,47.61c0-1,0-1.68,0-1.93a1.91,1.91,0,0,0-.27-1.09l-.13-.23c-.14-.23-.26-.45-.4-.65a9.37,9.37,0,0,1-1.81-6.15,6.89,6.89,0,0,1,1.06-3.65,7,7,0,0,1,6.58-2.83l.33.05a9.49,9.49,0,0,1,2.66.77,5.1,5.1,0,0,0,4.27.1,9.07,9.07,0,0,1,5.46-.58,6.11,6.11,0,0,1,5,4.93A9.71,9.71,0,0,1,34.83,44,8.53,8.53,0,0,0,34,45.58l-.06.11s0,.17,0,.26v.91h-1V46a1.6,1.6,0,0,1,.09-.71l0-.1a9.75,9.75,0,0,1,1-1.75,8.7,8.7,0,0,0,1.6-6.89,5.15,5.15,0,0,0-4.27-4.12,8,8,0,0,0-4.86.53,6.08,6.08,0,0,1-5.07-.12A8.77,8.77,0,0,0,19,32.12l-.3,0a6,6,0,0,0-5.63,2.37,5.9,5.9,0,0,0-.9,3.14,8.49,8.49,0,0,0,1.61,5.53,7.71,7.71,0,0,1,.46.74l.13.22a2.92,2.92,0,0,1,.41,1.65c0,.22,0,1,0,1.85Z"></path><path d="M65.93,48.88c-.07-1.59-.11-3.39-.09-3.84A1.83,1.83,0,0,0,65.57,44l-.13-.23a5.11,5.11,0,0,0-.4-.65,9.42,9.42,0,0,1-1.8-6.15,6.88,6.88,0,0,1,1.05-3.65,7,7,0,0,1,6.59-2.83l.32,0a9.49,9.49,0,0,1,2.66.77,5.13,5.13,0,0,0,4.28.1,9.06,9.06,0,0,1,5.46-.58,6.11,6.11,0,0,1,5,4.93,9.71,9.71,0,0,1-1.79,7.66A9.89,9.89,0,0,0,86,44.94l0,.11v.41c0,.38,0,.75,0,1.11h-1c0-.36,0-.72,0-1.09v-.14a1.61,1.61,0,0,1,.1-.71l0-.1a10.35,10.35,0,0,1,1-1.75,8.7,8.7,0,0,0,1.6-6.89,5.14,5.14,0,0,0-4.27-4.12,8,8,0,0,0-4.86.53,6.08,6.08,0,0,1-5.07-.12,8.77,8.77,0,0,0-2.39-.69l-.3,0a6,6,0,0,0-5.63,2.37A5.92,5.92,0,0,0,64.24,37a8.38,8.38,0,0,0,1.61,5.53c.16.23.3.47.45.73l.14.23a2.91,2.91,0,0,1,.4,1.65c0,.37,0,2.09.09,3.75Z"></path><path d="M50,51.4a20.54,20.54,0,0,1-9.85-3l.5-.87c4.94,2.86,12,5.05,17.71-.76a3.43,3.43,0,0,1,1.37-.84l.32,1a2.43,2.43,0,0,0-1,.59A12.27,12.27,0,0,1,50,51.4Z"></path><path d="M80.52,69.61H21.25c-4.92,0-7.41-5-7.41-14.82V46.56l.76.48c3,1.85,10.82,5.49,18.79-.58,1.8-1.38,3.44-1.57,4.89-.57a.49.49,0,0,1,.13.69.5.5,0,0,1-.7.13c-1.08-.74-2.26-.57-3.72.54-7.85,6-15.55,3.1-19.15,1.08v6.46c0,9.17,2.15,13.82,6.41,13.82H80.52c1.9,0,3.15-1.3,3.82-4a31.42,31.42,0,0,0,.6-7.33V47.57c-8.8,6.33-18.38,2.63-22.32-.31a2.65,2.65,0,0,0-1-.45.5.5,0,0,1-.38-.6.49.49,0,0,1,.59-.38,3.64,3.64,0,0,1,1.4.63c3.85,2.87,13.37,6.5,21.9-.29l.82-.64v11.8a32.14,32.14,0,0,1-.63,7.57C84.52,68,82.91,69.61,80.52,69.61Z"></path><path d="M50.69,64.65c-2.8,0-5.55-2-6.91-5.12L39.91,48c0-.77,0-1.67.07-2.11l0-.2a1.91,1.91,0,0,0-.27-1.09l-.13-.23c-.13-.23-.26-.45-.4-.65a9.37,9.37,0,0,1-1.81-6.15A6.49,6.49,0,0,1,45,31.08l.33.05A9.49,9.49,0,0,1,48,31.9a5.13,5.13,0,0,0,4.28.1,9,9,0,0,1,5.45-.58,6.11,6.11,0,0,1,5,4.93A9.71,9.71,0,0,1,61,44a9.16,9.16,0,0,0-.87,1.57l0,.11a2.19,2.19,0,0,0,0,.26v.59l0,.5L56.6,59.48c-1,3.16-3.05,5-5.62,5.17ZM40.91,47.88l3.81,11.29c1.2,2.75,3.77,4.61,6.21,4.48,2.16-.11,3.83-1.69,4.71-4.45l3.45-12.36V46a1.6,1.6,0,0,1,.09-.71l0-.1a9.75,9.75,0,0,1,1-1.75,8.7,8.7,0,0,0,1.6-6.89,5.15,5.15,0,0,0-4.27-4.12,8,8,0,0,0-4.86.53,6.08,6.08,0,0,1-5.07-.12,8.77,8.77,0,0,0-2.39-.69l-.3,0a5.48,5.48,0,0,0-6.53,5.51A8.49,8.49,0,0,0,40,43.12a7.71,7.71,0,0,1,.46.74l.13.22A2.92,2.92,0,0,1,41,45.73L41,46C41,46.36,40.9,47.18,40.91,47.88Z"></path><path d="M50.58,54.05a20.37,20.37,0,0,1-9.07-2.28l.5-.87c.08.05,8.62,4.81,16,0l.55.84A14.3,14.3,0,0,1,50.58,54.05Z"></path><path d="M50.11,56.71a20.41,20.41,0,0,1-7.62-1.52l.4-.91c.79.34,7.89,3.23,14.28-.32l.49.87A15.39,15.39,0,0,1,50.11,56.71Z"></path><path d="M50,59.52a25.58,25.58,0,0,1-6.29-.81l.27-1c.07,0,7.53,2,12.2-.56l.48.87A13.87,13.87,0,0,1,50,59.52Z"></path><path d="M50.54,62.21a25.3,25.3,0,0,1-5.15-.57l.21-1c2.21.47,6.4,1.06,9.69-.23l.37.93A14.27,14.27,0,0,1,50.54,62.21Z"></path></svg>